<?xml version="1.0" encoding="UTF-8"?>
<svg id="Ebene_1" data-name="Ebene 1" xmlns="http://www.w3.org/2000/svg" viewBox="0 0 146.3 18.44">
  <defs>
    <style>
      .cls-1 {
        fill: #fff;
      }

      .cls-1, .cls-2 {
        stroke-width: 0px;
      }

      .cls-2 {
        fill: #7ab734;
      }

      .cls-3 {
        fill: #664390;
        stroke: #664391;
        stroke-miterlimit: 10;
        stroke-width: .25px;
      }
    </style>
  </defs>
  <path class="cls-1" d="M0,.3h13.62v3.83H5.53v3.11h6.91v3.6h-6.91v7.29H0V.3Z"/>
  <path class="cls-1" d="M15.9,9.23c0-2.91.81-5.18,2.43-6.8s3.88-2.43,6.78-2.43,5.25.8,6.86,2.39,2.41,3.83,2.41,6.7c0,2.08-.35,3.79-1.05,5.13s-1.72,2.37-3.04,3.11-2.98,1.11-4.96,1.11-3.68-.32-4.99-.96-2.39-1.65-3.21-3.04-1.23-3.12-1.23-5.21ZM21.41,9.26c0,1.8.33,3.09,1,3.88s1.58,1.18,2.73,1.18,2.1-.39,2.75-1.16.97-2.15.97-4.15c0-1.68-.34-2.91-1.02-3.68s-1.6-1.16-2.76-1.16-2,.39-2.68,1.18-1.01,2.09-1.01,3.9Z"/>
  <path id="E" class="cls-1" d="M37.33.3h14.77v3.81h-9.24v2.83h8.58v3.64h-8.58v3.52h9.51v4.04h-15.03V.3Z"/>
  <path id="E-2" data-name="E" class="cls-3" d="M37.33,4.17V.3h14.77v3.81l-14.77.06Z"/>
  <path class="cls-1" d="M55.41,18.14V.3h9.18c1.7,0,3,.15,3.9.44s1.63.83,2.18,1.62.83,1.75.83,2.89c0,.99-.21,1.84-.63,2.56-.42.72-1,1.3-1.74,1.75-.47.28-1.12.52-1.94.71.66.22,1.13.44,1.43.66.2.15.5.46.88.94s.64.85.77,1.11l2.67,5.17h-6.23l-2.95-5.45c-.37-.71-.71-1.16-1-1.37-.4-.28-.85-.41-1.35-.41h-.49v7.24h-5.53ZM60.94,7.53h2.32c.25,0,.74-.08,1.46-.24.36-.07.66-.26.89-.56s.35-.64.35-1.03c0-.58-.18-1.02-.55-1.33s-1.05-.46-2.06-.46h-2.42v3.62Z"/>
  <path class="cls-1" d="M73.75,12.24l5.24-.33c.11.85.34,1.5.69,1.95.57.72,1.38,1.08,2.43,1.08.79,0,1.39-.18,1.82-.55s.64-.8.64-1.28-.2-.88-.61-1.24-1.35-.71-2.82-1.03c-2.42-.54-4.14-1.27-5.17-2.17-1.04-.9-1.56-2.05-1.56-3.44,0-.92.27-1.78.8-2.6.53-.81,1.33-1.46,2.4-1.92s2.53-.7,4.39-.7c2.28,0,4.02.42,5.21,1.27s1.91,2.2,2.13,4.04l-5.19.3c-.14-.8-.43-1.39-.87-1.75s-1.05-.55-1.83-.55c-.64,0-1.12.14-1.45.41s-.49.6-.49.99c0,.28.13.54.4.77.26.24.88.45,1.85.66,2.41.52,4.13,1.04,5.18,1.58s1.8,1.19,2.27,1.98.71,1.67.71,2.64c0,1.14-.32,2.2-.95,3.16s-1.52,1.7-2.65,2.2-2.57.75-4.29.75c-3.03,0-5.13-.58-6.3-1.75-1.17-1.17-1.83-2.65-1.98-4.45Z"/>
  <path class="cls-1" d="M91.45.3h16.75v4.4h-5.62v13.43h-5.51V4.71h-5.62V.3Z"/>
  <path class="cls-1" d="M110.68.3h14.77v3.81h-9.24v2.83h8.58v3.64h-8.58v3.52h9.51v4.04h-15.03V.3Z"/>
  <path id="R" class="cls-1" d="M128.76,18.14V.3h9.18c1.7,0,3,.15,3.9.44s1.63.83,2.18,1.62.83,1.75.83,2.89c0,.99-.21,1.84-.63,2.56-.42.72-1,1.3-1.74,1.75-.47.28-1.12.52-1.94.71.66.22,1.13.44,1.43.66.2.15.5.46.88.94s.64.85.77,1.11l2.67,5.17h-6.23l-2.95-5.45c-.37-.71-.71-1.16-1-1.37-.4-.28-.85-.41-1.35-.41h-.49v7.24h-5.53ZM134.29,7.53h2.32c.25,0,.74-.08,1.46-.24.36-.07.66-.26.89-.56s.35-.64.35-1.03c0-.58-.18-1.02-.55-1.33s-1.05-.46-2.06-.46h-2.42v3.62Z"/>
  <path id="R-2" data-name="R" class="cls-2" d="M134.29.3h3.65c1.7,0,3,.15,3.9.44s1.63.83,2.18,1.62.83,1.75.83,2.89c0,.99-.21,1.84-.63,2.56-.42.72-1,1.3-1.74,1.75-.47.28-1.12.52-1.94.71.66.22,1.13.44,1.43.66.2.15.5.46.88.94s.64.85.77,1.11l2.67,5.17h-6.23l-2.95-5.45c-.37-.71-.71-1.16-1-1.37-.4-.28-.85-.41-1.35-.41h-.49M134.29,7.53h2.32c.25,0,.74-.08,1.46-.24.36-.07.66-.26.89-.56s.35-.64.35-1.03c0-.58-.18-1.02-.55-1.33s-1.05-.46-2.06-.46h-2.42v3.62Z"/>
</svg>